<?xml version="1.0" encoding="UTF-8" standalone="no"?>
<!-- Created with Inkscape (http://www.inkscape.org/) -->

<svg
   xmlns:dc="http://purl.org/dc/elements/1.1/"
   xmlns:cc="http://creativecommons.org/ns#"
   xmlns:rdf="http://www.w3.org/1999/02/22-rdf-syntax-ns#"
   xmlns:svg="http://www.w3.org/2000/svg"
   xmlns="http://www.w3.org/2000/svg"
   xmlns:sodipodi="http://sodipodi.sourceforge.net/DTD/sodipodi-0.dtd"
   xmlns:inkscape="http://www.inkscape.org/namespaces/inkscape"
   width="210mm"
   height="210mm"
   viewBox="0 0 210 210"
   version="1.1"
   id="svg10817"
   inkscape:version="0.92.4 (5da689c313, 2019-01-14)"
   sodipodi:docname="check2.svg">
  <defs
     id="defs10811" />
  <sodipodi:namedview
     id="base"
     pagecolor="#ffffff"
     bordercolor="#666666"
     borderopacity="1.0"
     inkscape:pageopacity="0.0"
     inkscape:pageshadow="2"
     inkscape:zoom="0.35"
     inkscape:cx="786.8706"
     inkscape:cy="663.62666"
     inkscape:document-units="mm"
     inkscape:current-layer="g1044"
     showgrid="false"
     inkscape:window-width="1920"
     inkscape:window-height="1137"
     inkscape:window-x="1912"
     inkscape:window-y="32"
     inkscape:window-maximized="1" />
  <metadata
     id="metadata10814">
    <rdf:RDF>
      <cc:Work
         rdf:about="">
        <dc:format>image/svg+xml</dc:format>
        <dc:type
           rdf:resource="http://purl.org/dc/dcmitype/StillImage" />
        <dc:title></dc:title>
      </cc:Work>
    </rdf:RDF>
  </metadata>
  <g
     inkscape:label="Layer 1"
     inkscape:groupmode="layer"
     id="layer1"
     transform="translate(0,-87)">
    <g
       id="g1044"
       transform="matrix(2.4889871,0,0,2.4889871,-79.742233,-455.71906)">
      <path
         inkscape:connector-curvature="0"
         d="m 74.925742,237.14401 c -0.165861,-0.002 -0.333731,-0.002 -0.503678,4.1e-4 -0.90637,0.011 -1.87297,0.0757 -2.924587,0.19128 -8.26981,0.90867 -14.588405,5.47149 -16.469215,11.89287 -0.31808,1.08596 -0.702151,3.48153 -0.853677,5.32346 -0.263742,3.20596 -0.200167,3.66684 1.48979,10.79049 1.482869,6.25131 2.069937,8.11988 3.669491,11.68319 2.254674,5.02275 4.657727,9.65273 7.12747,13.76179 18.093382,8.19288 28.727894,-1.37626 36.852014,-13.81962 -0.0112,0.0142 0.0198,-0.0302 0.0297,-0.0453 -0.01,0.0152 -0.02,0.0301 -0.0297,0.0453 1.3953,-1.49687 2.67581,-4.48578 2.5476,-4.17941 2.22799,-4.80242 -1.43083,-1.68088 -5.02202,-5.95962 -2.209235,-2.6668 -3.226247,-4.51159 -6.507933,-11.80572 -4.511033,-10.02713 -7.783581,-14.25907 -12.715609,-16.44341 -2.153134,-0.95359 -4.200306,-1.4098 -6.688298,-1.43601 z m 31.386378,34.43492 c -0.003,0.008 0.004,0.0166 0.006,0.0249 -0.003,0.006 -0.005,0.0119 -0.007,0.0178 0.004,-0.0284 0.004,-0.0417 10e-4,-0.0427 z m 8.6379,22.06902 c 0.0877,-0.0839 -0.24157,0.24219 -0.35911,0.36012 0.11969,-0.12004 0.2396,-0.2399 0.35911,-0.36012 z"
         style="fill:#70cef4;stroke-width:0.36749634"
         id="path909"
         sodipodi:nodetypes="ccscccccccccccccccccccccc" />
      <path
         d="M 107.92287,268.69622 A 35.579498,35.579498 0 0 1 64.204473,293.60588 35.579498,35.579498 0 0 1 39.294603,249.8876 35.579498,35.579498 0 0 1 83.012766,224.97753 35.579498,35.579498 0 0 1 107.92304,268.69557"
         sodipodi:open="true"
         sodipodi:end="0.26748282"
         sodipodi:start="0.26750154"
         sodipodi:ry="35.579498"
         sodipodi:rx="35.579498"
         sodipodi:cy="259.29175"
         sodipodi:cx="73.60878"
         sodipodi:type="arc"
         id="path815"
         style="opacity:1;fill:#c58d6d;fill-opacity:0;fill-rule:evenodd;stroke:#f46dce;stroke-width:7.74789333;stroke-miterlimit:4;stroke-dasharray:none;stroke-opacity:1" />
      <g
         transform="matrix(0.28680775,-0.0702441,0.0702441,0.28680775,32.369353,213.61811)"
         id="g4134">
        <g
           transform="translate(0,-56.418927)"
           id="g3844">
          <g
             id="g3418"
             transform="translate(-125.60812,98.670007)">
            <path
               sodipodi:open="true"
               d="m 278.57027,118.48147 a 14.010137,13.838897 0 0 1 -17.83201,7.8824 14.010137,13.838897 0 0 1 -8.47233,-17.38824 14.010137,13.838897 0 0 1 17.36118,-8.8487 14.010137,13.838897 0 0 1 9.43713,16.8965"
               sodipodi:end="0.26735652"
               sodipodi:start="0.37851495"
               sodipodi:ry="13.838897"
               sodipodi:rx="14.010137"
               sodipodi:cy="113.36743"
               sodipodi:cx="265.55185"
               sodipodi:type="arc"
               id="path1355-4-4"
               style="fill:#ffffff;fill-opacity:1;stroke-width:0.29222032" />
            <path
               sodipodi:open="true"
               d="m 200.61067,118.30663 a 14.302463,13.911979 0 0 1 -18.20408,7.92403 14.302463,13.911979 0 0 1 -8.64911,-17.48006 14.302463,13.911979 0 0 1 17.72343,-8.895431 14.302463,13.911979 0 0 1 9.63404,16.985721"
               sodipodi:end="0.26735652"
               sodipodi:start="0.37851495"
               sodipodi:ry="13.911979"
               sodipodi:rx="14.302463"
               sodipodi:cy="113.16559"
               sodipodi:cx="187.32062"
               sodipodi:type="arc"
               id="path1355-4-6-7"
               style="fill:#ffffff;fill-opacity:1;stroke-width:0.29603183" />
            <g
               transform="translate(674.97883,40.62935)"
               id="g1020-4-6-6" />
          </g>
          <path
             style="fill:#151d22;fill-opacity:1;stroke:none;stroke-width:0.3180052"
             d="m 90.21886,243.49707 c -2.90258,-0.91926 -5.23038,-3.18699 -6.13605,-5.97769 -0.5567,-1.7154 -0.75411,-5.85973 -0.35004,-7.3485 0.28577,-1.05288 1.53215,-1.68474 2.5395,-1.28742 0.97054,0.38279 1.13659,0.91605 1.13659,3.65002 0,1.2563 0.16476,2.85466 0.36614,3.55192 1.31346,4.54786 9.23823,5.2033 11.39882,0.94277 0.60722,-1.1974 0.72391,-1.91529 0.72391,-4.45357 0,-3.40209 0.45475,-4.32165 2.13716,-4.32165 1.53556,0 1.92172,0.82117 1.92172,4.08654 0,3.39095 0.72167,5.31616 2.43547,6.49717 2.33608,1.60982 6.7551,1.23761 8.65047,-0.72863 1.25321,-1.30007 1.86425,-3.80783 1.55449,-6.37976 -0.17686,-1.46845 -0.11643,-1.78843 0.43564,-2.30673 0.79094,-0.74255 2.10893,-0.77774 2.78691,-0.0744 0.67217,0.69731 0.88515,4.57252 0.38336,6.97572 -0.20773,0.99491 -0.73874,2.39193 -1.18003,3.10451 -1.8928,3.05637 -3.91257,4.11681 -8.19743,4.30385 -3.47285,0.15159 -5.65128,-0.50824 -7.67782,-2.32555 l -1.21309,-1.08784 -1.37625,1.25672 c -0.78478,0.71663 -2.05191,1.46488 -2.94842,1.74107 -1.63908,0.50495 -6.02928,0.61273 -7.39105,0.18146 z"
             id="path3422-0-9-3"
             inkscape:connector-curvature="0" />
          <path
             id="path876-0-5"
             style="fill:#151d22;fill-rule:evenodd;stroke-width:1.04442763"
             d="m 61.664442,197.01155 c -8.60869,0 -14.61071,5.91751 -14.61771,14.41255 -0.007,7.51581 3.07956,11.87329 10.16941,14.3583 9.52275,3.33775 19.06291,-3.74335 19.06291,-14.14901 0,-4.20349 -1.37537,-7.75456 -3.77651,-10.30428 -2.57553,-2.7349 -6.33173,-4.31756 -10.8381,-4.31756 z m 78.633958,0.004 c -3.1763,0.002 -6.26639,0.77541 -8.46719,2.11719 -4.49589,2.74106 -7.95868,10.2557 -7.02334,15.24144 0.85754,4.57113 6.1002,10.55552 10.33372,11.79567 10.40979,3.04935 20.11442,-5.07448 19.15388,-16.03417 -0.38659,-4.4112 -1.06725,-5.72823 -4.72374,-9.13897 -3.71954,-3.46954 -4.91874,-3.98416 -9.27333,-3.98116 z m -86.829838,7.36338 c 1.91893,0.0633 3.49643,1.96274 3.49643,4.75785 0,2.47018 -0.49138,3.07632 -2.70061,3.33313 -4.84517,0.56321 -6.88026,-4.92716 -2.78278,-7.50756 0.6698,-0.4218 1.34732,-0.60451 1.98696,-0.58342 z m 78.131138,0.0196 c 0.0837,-0.002 0.16679,-0.001 0.2496,0.003 2.87062,0.14441 5.13781,4.04409 2.88354,6.76031 -1.61322,1.94384 -4.56985,1.94384 -6.18308,0 -1.62367,-1.95639 -1.05644,-4.73832 1.264,-6.19962 0.59372,-0.37389 1.19993,-0.54836 1.78594,-0.56379 z m -61.503208,10.36836 c 1.46007,0 2.05548,0.56746 1.82779,1.74149 -0.61005,3.14555 -3.99304,2.85 -3.99304,-0.34881 0,-0.76592 0.97426,-1.39268 2.16525,-1.39268 z m 77.669668,0.1633 c 0.10398,0.002 0.21251,0.014 0.32504,0.0356 1.00526,0.1936 1.82779,1.01154 1.82779,1.81746 0,1.649 -1.84303,2.58203 -2.9378,1.48725 -1.34519,-1.3452 -0.77496,-3.37731 0.78497,-3.34036 z m -29.63541,20.10161 c -0.0371,0.0227 -0.0509,0.0278 -0.0739,0.0413 -3e-5,2.7e-4 2e-5,5.3e-4 0,10e-4 0.0236,-0.0141 0.0422,-0.0252 0.0739,-0.0424 z m -34.911028,6.70863 c -0.029,0.0104 -0.0583,0.0201 -0.0873,0.0305 0.006,0.009 0.0149,0.0169 0.0217,0.0253 0.022,-0.0184 0.0437,-0.0374 0.0656,-0.0558 z m 11.96154,6.26319 c -0.32974,0.0981 -0.6606,0.19204 -0.99012,0.29094 -0.033,0.0191 -0.0661,0.0379 -0.0992,0.0568 0.20922,-0.0532 0.41802,-0.10697 0.62735,-0.15968 0.0876,-0.0372 0.17037,-0.073 0.26872,-0.11265 0.0642,-0.0259 0.1299,-0.0483 0.19482,-0.0724 -5.3e-4,-0.001 -0.001,-0.002 -0.002,-0.003 z"
             inkscape:connector-curvature="0" />
        </g>
        <path
           inkscape:connector-curvature="0"
           d="m 132.09351,176.45801 c 0.4253,0.51182 0.91767,0.9638 1.39454,1.42675 0.35495,0.40047 0.75237,0.76216 1.16869,1.09739 0.36743,0.3947 0.83691,0.66365 1.26876,0.97709 0.39205,0.28611 0.76146,0.60436 1.15546,0.88752 0.39722,0.28599 0.77026,0.60279 1.16425,0.89254 0.16279,0.18067 0.37855,0.28742 0.56915,0.43155 0,0 -2.59582,1.6461 -2.59582,1.6461 v 0 c -0.19569,-0.13799 -0.39256,-0.27328 -0.5649,-0.44104 -0.38302,-0.30105 -0.76276,-0.60644 -1.15806,-0.89151 -0.38554,-0.29294 -0.76541,-0.59339 -1.15176,-0.88536 -0.43998,-0.31462 -0.89877,-0.60676 -1.28117,-0.99408 -0.41185,-0.35208 -0.81876,-0.71077 -1.17027,-1.12508 -0.47701,-0.46727 -0.95736,-0.93157 -1.41315,-1.41984 0,0 2.61428,-1.60203 2.61428,-1.60203 z"
           id="path4051"
           style="fill:#ff00b7;fill-opacity:1;fill-rule:evenodd;stroke:none;stroke-width:0.26458332" />
        <path
           inkscape:connector-curvature="0"
           d="m 136.43799,175.54676 c 0.55692,0.3894 1.14252,0.73251 1.72569,1.08003 0.5231,0.30856 0.97483,0.70981 1.43636,1.09934 0.45743,0.30174 0.82728,0.70843 1.27688,1.01949 0.39906,0.33901 0.8315,0.63465 1.241,0.95982 0.34615,0.3035 0.72085,0.57431 1.10285,0.83029 0.32559,0.24857 0.67489,0.46585 0.98045,0.73931 0.17896,0.13688 0.0926,0.0619 0.25804,0.22595 0,0 -2.61751,1.61136 -2.61751,1.61136 v 0 c -0.15324,-0.14157 -0.0711,-0.0697 -0.24745,-0.21441 -0.30595,-0.25636 -0.63711,-0.47997 -0.96051,-0.71338 -0.37641,-0.27231 -0.7556,-0.54179 -1.10374,-0.85046 -0.40935,-0.31808 -0.83303,-0.61765 -1.23133,-0.9501 -0.44401,-0.32918 -0.83593,-0.72014 -1.2862,-1.04186 -0.45018,-0.37922 -0.89772,-0.76097 -1.40874,-1.05888 -0.58192,-0.35079 -1.15113,-0.72229 -1.73793,-1.06451 0,0 2.57214,-1.67199 2.57214,-1.67199 z"
           id="path4053"
           style="fill:#ff00b7;fill-opacity:1;fill-rule:evenodd;stroke:none;stroke-width:0.26458332" />
        <path
           inkscape:connector-curvature="0"
           d="m 143.45617,175.38722 c 0.49144,0.45318 1.01233,0.87713 1.55919,1.26176 0.44689,0.33137 0.90245,0.6507 1.34695,0.9853 0.46162,0.33114 0.87105,0.72385 1.30199,1.09322 0.47802,0.33823 0.93683,0.69993 1.37613,1.08688 0.37463,0.30599 0.73625,0.62641 1.10686,0.93805 0.34138,0.29674 0.70682,0.5635 1.05749,0.84942 0,0 -2.59494,1.62934 -2.59494,1.62934 v 0 c -0.35606,-0.2813 -0.71282,-0.56166 -1.05858,-0.85555 -0.37415,-0.30965 -0.73015,-0.63822 -1.10347,-0.94852 -0.44088,-0.38259 -0.90539,-0.73365 -1.37026,-1.0863 -0.42786,-0.36385 -0.84193,-0.74334 -1.2987,-1.07153 -0.44568,-0.3292 -0.89173,-0.6576 -1.33764,-0.98647 -0.54264,-0.40562 -1.06345,-0.83885 -1.58699,-1.26848 0,0 2.60197,-1.62712 2.60197,-1.62712 z"
           id="path4055"
           style="fill:#ff00b7;fill-opacity:1;fill-rule:evenodd;stroke:none;stroke-width:0.26458332" />
        <path
           inkscape:connector-curvature="0"
           d="m 150.28361,175.63119 c 0.48854,0.52718 0.97534,1.0477 1.52676,1.50955 0.40517,0.43895 0.85236,0.83322 1.26877,1.26135 0.3841,0.40844 0.79243,0.7939 1.15887,1.21839 0.39849,0.40209 0.78633,0.81946 1.22285,1.18086 0.44486,0.40327 0.80866,0.88285 1.26771,1.27077 0.15592,0.16024 0.33667,0.2921 0.51123,0.43059 0,0 -2.59588,1.63008 -2.59588,1.63008 v 0 c -0.17593,-0.14262 -0.3518,-0.28572 -0.51127,-0.4471 -0.44164,-0.40366 -0.81074,-0.87658 -1.26485,-1.26742 -0.43512,-0.38365 -0.84292,-0.79848 -1.24088,-1.22027 -0.37217,-0.41329 -0.77406,-0.79846 -1.15663,-1.20211 -0.40912,-0.42036 -0.83849,-0.81926 -1.24334,-1.24375 -0.5497,-0.47728 -1.02872,-1.01983 -1.55761,-1.51891 0,0 2.61427,-1.60203 2.61427,-1.60203 z"
           id="path4057"
           style="fill:#ff00b7;fill-opacity:1;fill-rule:evenodd;stroke:none;stroke-width:0.26458332" />
        <path
           inkscape:connector-curvature="0"
           d="m 51.779244,176.08245 c 0.4253,0.51182 0.91767,0.9638 1.39454,1.42675 0.35495,0.40047 0.75237,0.76216 1.16869,1.09739 0.36743,0.3947 0.83691,0.66365 1.26876,0.97709 0.39205,0.28611 0.76146,0.60436 1.15546,0.88752 0.39722,0.28599 0.77026,0.60279 1.16425,0.89254 0.16279,0.18067 0.37855,0.28742 0.56915,0.43155 0,0 -2.59582,1.6461 -2.59582,1.6461 v 0 c -0.19569,-0.13799 -0.39256,-0.27328 -0.5649,-0.44104 -0.38302,-0.30105 -0.76276,-0.60644 -1.15806,-0.89151 -0.38554,-0.29294 -0.76541,-0.59339 -1.15176,-0.88536 -0.43998,-0.31462 -0.89877,-0.60676 -1.28117,-0.99408 -0.41185,-0.35208 -0.81876,-0.71077 -1.17027,-1.12508 -0.47701,-0.46727 -0.95736,-0.93157 -1.41315,-1.41984 0,0 2.61428,-1.60203 2.61428,-1.60203 z"
           id="path4051-7"
           style="fill:#ff00b7;fill-opacity:1;fill-rule:evenodd;stroke:none;stroke-width:0.26458332" />
        <path
           inkscape:connector-curvature="0"
           d="m 56.123724,175.1712 c 0.55692,0.3894 1.14252,0.73251 1.72569,1.08003 0.5231,0.30856 0.97483,0.70981 1.43636,1.09934 0.45743,0.30174 0.82728,0.70843 1.27688,1.01949 0.39906,0.33901 0.8315,0.63465 1.241,0.95982 0.34615,0.3035 0.72085,0.57431 1.10285,0.83029 0.32559,0.24857 0.67489,0.46585 0.98045,0.73931 0.17896,0.13688 0.0926,0.0619 0.25804,0.22595 0,0 -2.61751,1.61136 -2.61751,1.61136 v 0 c -0.15324,-0.14157 -0.0711,-0.0697 -0.24745,-0.21441 -0.30595,-0.25636 -0.63711,-0.47997 -0.96051,-0.71338 -0.37641,-0.27231 -0.7556,-0.54179 -1.10374,-0.85046 -0.40935,-0.31808 -0.83303,-0.61765 -1.23133,-0.9501 -0.44401,-0.32918 -0.83593,-0.72014 -1.2862,-1.04186 -0.45018,-0.37922 -0.89772,-0.76097 -1.40874,-1.05888 -0.58192,-0.35079 -1.15113,-0.72229 -1.73793,-1.06451 0,0 2.57214,-1.67199 2.57214,-1.67199 z"
           id="path4053-6"
           style="fill:#ff00b7;fill-opacity:1;fill-rule:evenodd;stroke:none;stroke-width:0.26458332" />
        <path
           inkscape:connector-curvature="0"
           d="m 63.141904,175.01166 c 0.49144,0.45318 1.01233,0.87713 1.55919,1.26176 0.44689,0.33137 0.90245,0.6507 1.34695,0.9853 0.46162,0.33114 0.87105,0.72385 1.30199,1.09322 0.47802,0.33823 0.93683,0.69993 1.37613,1.08688 0.37463,0.30599 0.73625,0.62641 1.10686,0.93805 0.34138,0.29674 0.70682,0.5635 1.05749,0.84942 0,0 -2.59494,1.62934 -2.59494,1.62934 v 0 c -0.35606,-0.2813 -0.71282,-0.56166 -1.05858,-0.85555 -0.37415,-0.30965 -0.73015,-0.63822 -1.10347,-0.94852 -0.44088,-0.38259 -0.90539,-0.73365 -1.37026,-1.0863 -0.42786,-0.36385 -0.84193,-0.74334 -1.2987,-1.07153 -0.44568,-0.3292 -0.89173,-0.6576 -1.33764,-0.98647 -0.54264,-0.40562 -1.06345,-0.83885 -1.58699,-1.26848 0,0 2.60197,-1.62712 2.60197,-1.62712 z"
           id="path4055-4"
           style="fill:#ff00b7;fill-opacity:1;fill-rule:evenodd;stroke:none;stroke-width:0.26458332" />
        <path
           inkscape:connector-curvature="0"
           d="m 69.969344,175.25563 c 0.48854,0.52718 0.97534,1.0477 1.52676,1.50955 0.40517,0.43895 0.85236,0.83322 1.26877,1.26135 0.3841,0.40844 0.79243,0.7939 1.15887,1.21839 0.39849,0.40209 0.78633,0.81946 1.22285,1.18086 0.44486,0.40327 0.80866,0.88285 1.26771,1.27077 0.15592,0.16024 0.33667,0.2921 0.51123,0.43059 0,0 -2.59588,1.63008 -2.59588,1.63008 v 0 c -0.17593,-0.14262 -0.3518,-0.28572 -0.51127,-0.4471 -0.44164,-0.40366 -0.81074,-0.87658 -1.26485,-1.26742 -0.43512,-0.38365 -0.84292,-0.79848 -1.24088,-1.22027 -0.37217,-0.41329 -0.77406,-0.79846 -1.15663,-1.20211 -0.40912,-0.42036 -0.83849,-0.81926 -1.24334,-1.24375 -0.5497,-0.47728 -1.02872,-1.01983 -1.55761,-1.51891 0,0 2.61427,-1.60203 2.61427,-1.60203 z"
           id="path4057-7"
           style="fill:#ff00b7;fill-opacity:1;fill-rule:evenodd;stroke:none;stroke-width:0.26458332" />
      </g>
    </g>
  </g>
</svg>
