<?xml version="1.0" encoding="UTF-8" standalone="no"?>
<!-- Created with Inkscape (http://www.inkscape.org/) -->

<svg
   xmlns:dc="http://purl.org/dc/elements/1.1/"
   xmlns:cc="http://creativecommons.org/ns#"
   xmlns:rdf="http://www.w3.org/1999/02/22-rdf-syntax-ns#"
   xmlns:svg="http://www.w3.org/2000/svg"
   xmlns="http://www.w3.org/2000/svg"
   xmlns:sodipodi="http://sodipodi.sourceforge.net/DTD/sodipodi-0.dtd"
   xmlns:inkscape="http://www.inkscape.org/namespaces/inkscape"
   width="210mm"
   height="210mm"
   viewBox="0 0 210 210"
   version="1.1"
   id="svg8"
   inkscape:version="0.92.4 (5da689c313, 2019-01-14)"
   sodipodi:docname="upsy1_emo2.svg">
  <defs
     id="defs2" />
  <sodipodi:namedview
     id="base"
     pagecolor="#ffffff"
     bordercolor="#666666"
     borderopacity="1.0"
     inkscape:pageopacity="0.0"
     inkscape:pageshadow="2"
     inkscape:zoom="0.90509668"
     inkscape:cx="286.4819"
     inkscape:cy="393.28132"
     inkscape:document-units="mm"
     inkscape:current-layer="layer1"
     showgrid="false"
     inkscape:window-width="1920"
     inkscape:window-height="1137"
     inkscape:window-x="3832"
     inkscape:window-y="32"
     inkscape:window-maximized="1" />
  <metadata
     id="metadata5">
    <rdf:RDF>
      <cc:Work
         rdf:about="">
        <dc:format>image/svg+xml</dc:format>
        <dc:type
           rdf:resource="http://purl.org/dc/dcmitype/StillImage" />
        <dc:title></dc:title>
      </cc:Work>
    </rdf:RDF>
  </metadata>
  <g
     inkscape:label="Layer 1"
     inkscape:groupmode="layer"
     id="layer1"
     transform="translate(0,-87)">
    <g
       id="g1211"
       transform="translate(-14.363095,138.33929)" />
    <g
       id="g1097"
       transform="translate(4.8108515,155.55086)" />
    <path
       style="fill:#fad5e6;fill-opacity:1;stroke-width:0.26458332"
       id="path1355"
       sodipodi:type="arc"
       sodipodi:cx="48.369141"
       sodipodi:cy="183.72527"
       sodipodi:rx="12.402344"
       sodipodi:ry="12.815755"
       sodipodi:start="0.37851495"
       sodipodi:end="0.26735652"
       d="m 59.893578,188.46121 a 12.402344,12.815755 0 0 1 -15.785623,7.29964 12.402344,12.815755 0 0 1 -7.500054,-16.10269 12.402344,12.815755 0 0 1 15.368829,-8.19449 12.402344,12.815755 0 0 1 8.354132,15.6473"
       sodipodi:open="true" />
    <path
       style="fill:#fad5e6;fill-opacity:1;stroke-width:0.26458332"
       id="path1355-5"
       sodipodi:type="arc"
       sodipodi:cx="154.61589"
       sodipodi:cy="183.10513"
       sodipodi:rx="12.402344"
       sodipodi:ry="12.815755"
       sodipodi:start="0.37851495"
       sodipodi:end="0.26735652"
       d="m 166.14033,187.84108 a 12.402344,12.815755 0 0 1 -15.78563,7.29963 12.402344,12.815755 0 0 1 -7.50005,-16.10268 12.402344,12.815755 0 0 1 15.36883,-8.19449 12.402344,12.815755 0 0 1 8.35413,15.6473"
       sodipodi:open="true" />
    <g
       style=""
       id="g844"
       transform="translate(35.151782,7.9374994)">
      <path
         style="fill:#6cccf3;stroke-width:1.34811497"
         d="m 58.327806,273.55313 c -4.811429,-2.02519 -7.75519,-4.97154 -13.723018,-13.73504 -4.683681,-6.87779 -5.79469,-7.75166 -9.85515,-7.75166 -4.864965,0 -6.679086,1.88341 -12.111675,12.57423 -3.133921,6.16726 -8.049501,8.99561 -15.6341133,8.99561 -4.534879,0 -6.43931005,-0.8451 -10.057023,-4.4628 -6.835146,-6.83515 -7.8352317,-12.74413 -6.946789,-41.04486 l 0.77264,-24.61188 -3.6464877,-2.25893 c -9.515461,-5.89469 -15.105466,-13.40882 -15.105466,-20.30489 0,-7.56726 5.75987,-9.09764 15.85239,-4.21194 3.2826937,1.58912 6.3850487,2.33965 6.9657547,1.68514 0.575861,-0.64904 2.081743,-5.1233 3.346404,-9.94281 3.968788,-15.1247 15.8705673,-37.50529 24.7035393,-46.45354 14.587492,-14.77788 35.019325,-21.55726 53.461862,-17.73891 12.885319,2.66779 14.978829,3.57753 24.649016,10.71136 14.20355,10.47817 25.44051,28.48302 32.06457,51.37672 1.91773,6.62796 3.77832,12.34237 4.13463,12.69868 0.3563,0.35629 3.56708,-0.71948 7.13504,-2.39063 3.56798,-1.67114 8.2566,-2.83566 10.41917,-2.5878 9.74126,1.11646 5.93291,16.17957 -6.31536,24.97908 l -6.55452,4.70894 v 26.34242 c 0,16.29179 -0.6049,28.36137 -1.58542,31.63408 -2.20336,7.35416 -7.92844,11.87389 -15.03243,11.86752 -8.27562,-0.008 -13.73912,-3.96812 -18.1016,-13.1226 -3.4168,-7.16999 -4.0821,-7.79982 -8.640415,-8.17958 -4.336582,-0.36128 -5.404742,0.20185 -8.762751,4.6198 -2.10329,2.76717 -6.292631,7.73237 -9.30964,11.03378 -4.847791,5.30473 -6.25828,6.05921 -12.133041,6.48999 -3.65615,0.26809 -8.151707,-0.14568 -9.990117,-0.91948 z m -39.123058,-92.9368 c 3.275365,-3.27535 3.491466,-9.01983 0.465117,-12.36391 -2.779996,-3.07186 -9.556764,-3.1956 -12.8290283,-0.23423 -5.378058,4.86706 -1.084659,15.29438 6.2973963,15.29438 1.853658,0 4.583592,-1.2133 6.066515,-2.69624 z M 127.0116,177.58307 c 1.83919,-3.30266 1.84382,-4.09742 0.0423,-7.28146 -2.74753,-4.85618 -5.64622,-6.42961 -9.88515,-5.36571 -11.01687,2.76506 -8.40063,17.71819 2.93287,16.76291 3.656,-0.30816 5.35217,-1.31844 6.90992,-4.11574 z"
         id="path846-2"
         inkscape:connector-curvature="0" />
    </g>
    <g
       id="g1041"
       transform="translate(145.8707,-57.880559)">
      <path
         sodipodi:open="true"
         d="m 7.4619033,220.50935 a 14.010137,13.838897 0 0 1 -17.8320113,7.8824 14.010137,13.838897 0 0 1 -8.472333,-17.38824 14.010137,13.838897 0 0 1 17.3611867,-8.8487 14.010137,13.838897 0 0 1 9.4371295,16.8965"
         sodipodi:end="0.26735652"
         sodipodi:start="0.37851495"
         sodipodi:ry="13.838897"
         sodipodi:rx="14.010137"
         sodipodi:cy="215.39531"
         sodipodi:cx="-5.5565181"
         sodipodi:type="arc"
         id="path1355-4"
         style="fill:#ffffff;fill-opacity:1;stroke-width:0.29222032" />
      <path
         sodipodi:open="true"
         d="m -70.497695,220.33451 a 14.302463,13.911979 0 0 1 -18.204082,7.92403 14.302463,13.911979 0 0 1 -8.649111,-17.48007 14.302463,13.911979 0 0 1 17.723433,-8.89542 14.302463,13.911979 0 0 1 9.634038,16.98572"
         sodipodi:end="0.26735652"
         sodipodi:start="0.37851495"
         sodipodi:ry="13.911979"
         sodipodi:rx="14.302463"
         sodipodi:cy="215.19347"
         sodipodi:cx="-83.78775"
         sodipodi:type="arc"
         id="path1355-4-6"
         style="fill:#ffffff;fill-opacity:1;stroke-width:0.29603183" />
      <path
         inkscape:connector-curvature="0"
         id="path876-0"
         d="m -48.180249,253.80768 c -7.11786,-2.20535 -13.02243,-9.38772 -16.08599,-19.56715 -1.90691,-6.33618 -0.89822,-7.29901 5.39882,-5.15339 10.55328,3.59586 17.2745,3.39036 32.57696,-0.99602 2.04725,-0.58683 2.34986,-0.28793 2.34914,2.32039 -0.002,7.00023 -11.12515,23.32198 -15.92971,23.37459 -0.71639,0.008 -2.24251,0.21312 -3.39138,0.45617 -1.14887,0.24305 -3.3619,0.0475 -4.91784,-0.43459 z m 9.13622,-7.41265 c 0.92468,-1.49616 -2.51325,-5.15633 -4.84324,-5.15633 -1.73461,0 -5.11949,3.6064 -5.11949,5.45453 0,1.24128 9.18113,0.96647 9.96273,-0.2982 z m -48.87756,-17.11829 c -7.08985,-2.48502 -10.1759,-6.84216 -10.16937,-14.35797 0.007,-8.49505 6.00939,-14.41274 14.61808,-14.41274 8.70762,0 14.61418,5.90971 14.61418,14.62198 0,10.40566 -9.54014,17.48648 -19.06289,14.14873 z m 14.70847,-9.27424 c 0.22769,-1.17403 -0.36768,-1.7412 -1.82775,-1.7412 -1.19099,0 -2.16544,0.62665 -2.16544,1.39257 0,3.19881 3.38314,3.49418 3.99319,0.34863 z m -14.95968,-7.37173 c 0,-3.72681 -2.80407,-5.86147 -5.48325,-4.17425 -4.09748,2.5804 -2.06239,8.07084 2.78278,7.50762 2.20923,-0.25681 2.70047,-0.86318 2.70047,-3.33337 z m 78.1770799,17.03331 c -4.2335599,-1.24014 -9.4763899,-7.2246 -10.3339399,-11.79573 -0.93533,-4.98574 2.5276,-12.50065 7.02349,-15.24171 2.2008,-1.34178 5.2906399,-2.11423 8.4669199,-2.11671 4.35459996,-0.003 5.55399996,0.51149 9.27353,3.98103 3.6565,3.41075 4.33715,4.72754 4.72375,9.13874 0.9605401,10.95969 -8.74397004,19.08373 -19.15375,16.03438 z m 14.77698,-9.38666 c 0,-0.80592 -0.82248,-1.6237 -1.82774,-1.8173 -1.80033,-0.34671 -2.54459004,1.86948 -1.10971,3.30436 1.09478,1.09478 2.93745,0.16194 2.93745,-1.48706 z m -15.1858399,-5.62145 c 2.7744799,-3.34304 -1.30055,-8.47842 -4.91939,-6.19945 -2.32044,1.4613 -2.88756,4.24306 -1.26389,6.19945 1.61323,1.94383 4.57005,1.94383 6.18328,0 z"
         style="fill:#151d22;stroke-width:1.04442763" />
      <g
         transform="translate(424.74774,139.14323)"
         id="g1020-4-6">
        <path
           inkscape:connector-curvature="0"
           id="path1032-3-8"
           d="m -475.99077,111.75538 c -2.00873,-1.22475 -3.65224,-2.94784 -3.65224,-3.82908 0,-2.57395 6.6059,-7.42091 10.1139,-7.42091 3.50799,0 10.11389,4.84696 10.11389,7.42091 0,2.12238 -6.56932,6.0559 -10.11389,6.0559 -1.54518,0 -4.45293,-1.00207 -6.46166,-2.22682 z"
           style="fill:#e62a91;stroke-width:1.1237663" />
      </g>
    </g>
  </g>
</svg>
