<?xml version="1.0" encoding="UTF-8" standalone="no"?>
<!-- Created with Inkscape (http://www.inkscape.org/) -->

<svg
   xmlns:dc="http://purl.org/dc/elements/1.1/"
   xmlns:cc="http://creativecommons.org/ns#"
   xmlns:rdf="http://www.w3.org/1999/02/22-rdf-syntax-ns#"
   xmlns:svg="http://www.w3.org/2000/svg"
   xmlns="http://www.w3.org/2000/svg"
   xmlns:sodipodi="http://sodipodi.sourceforge.net/DTD/sodipodi-0.dtd"
   xmlns:inkscape="http://www.inkscape.org/namespaces/inkscape"
   width="210mm"
   height="210mm"
   viewBox="0 0 210 210"
   version="1.1"
   id="svg8"
   inkscape:version="0.92.4 (5da689c313, 2019-01-14)"
   sodipodi:docname="upsy1_emo3.svg">
  <defs
     id="defs2" />
  <sodipodi:namedview
     id="base"
     pagecolor="#ffffff"
     bordercolor="#666666"
     borderopacity="1.0"
     inkscape:pageopacity="0.0"
     inkscape:pageshadow="2"
     inkscape:zoom="0.90509668"
     inkscape:cx="286.4819"
     inkscape:cy="393.28132"
     inkscape:document-units="mm"
     inkscape:current-layer="layer1"
     showgrid="false"
     inkscape:window-width="1920"
     inkscape:window-height="1137"
     inkscape:window-x="3832"
     inkscape:window-y="32"
     inkscape:window-maximized="1" />
  <metadata
     id="metadata5">
    <rdf:RDF>
      <cc:Work
         rdf:about="">
        <dc:format>image/svg+xml</dc:format>
        <dc:type
           rdf:resource="http://purl.org/dc/dcmitype/StillImage" />
        <dc:title></dc:title>
      </cc:Work>
    </rdf:RDF>
  </metadata>
  <g
     inkscape:label="Layer 1"
     inkscape:groupmode="layer"
     id="layer1"
     transform="translate(0,-87)">
    <g
       id="g1211"
       transform="translate(-14.363095,138.33929)" />
    <g
       id="g1097"
       transform="translate(4.8108515,155.55086)" />
    <path
       style="fill:#fad5e6;fill-opacity:1;stroke-width:0.26458332"
       id="path1355"
       sodipodi:type="arc"
       sodipodi:cx="48.369141"
       sodipodi:cy="183.72527"
       sodipodi:rx="12.402344"
       sodipodi:ry="12.815755"
       sodipodi:start="0.37851495"
       sodipodi:end="0.26735652"
       d="m 59.893578,188.46121 a 12.402344,12.815755 0 0 1 -15.785623,7.29964 12.402344,12.815755 0 0 1 -7.500054,-16.10269 12.402344,12.815755 0 0 1 15.368829,-8.19449 12.402344,12.815755 0 0 1 8.354132,15.6473"
       sodipodi:open="true" />
    <path
       style="fill:#fad5e6;fill-opacity:1;stroke-width:0.26458332"
       id="path1355-5"
       sodipodi:type="arc"
       sodipodi:cx="154.61589"
       sodipodi:cy="183.10513"
       sodipodi:rx="12.402344"
       sodipodi:ry="12.815755"
       sodipodi:start="0.37851495"
       sodipodi:end="0.26735652"
       d="m 166.14033,187.84108 a 12.402344,12.815755 0 0 1 -15.78563,7.29963 12.402344,12.815755 0 0 1 -7.50005,-16.10268 12.402344,12.815755 0 0 1 15.36883,-8.19449 12.402344,12.815755 0 0 1 8.35413,15.6473"
       sodipodi:open="true" />
    <g
       style=""
       id="g844"
       transform="translate(35.151782,7.9374994)">
      <path
         style="fill:#6cccf3;stroke-width:1.34811497"
         d="m 58.327806,273.55313 c -4.811429,-2.02519 -7.75519,-4.97154 -13.723018,-13.73504 -4.683681,-6.87779 -5.79469,-7.75166 -9.85515,-7.75166 -4.864965,0 -6.679086,1.88341 -12.111675,12.57423 -3.133921,6.16726 -8.049501,8.99561 -15.6341133,8.99561 -4.534879,0 -6.43931005,-0.8451 -10.057023,-4.4628 -6.835146,-6.83515 -7.8352317,-12.74413 -6.946789,-41.04486 l 0.77264,-24.61188 -3.6464877,-2.25893 c -9.515461,-5.89469 -15.105466,-13.40882 -15.105466,-20.30489 0,-7.56726 5.75987,-9.09764 15.85239,-4.21194 3.2826937,1.58912 6.3850487,2.33965 6.9657547,1.68514 0.575861,-0.64904 2.081743,-5.1233 3.346404,-9.94281 3.968788,-15.1247 15.8705673,-37.50529 24.7035393,-46.45354 14.587492,-14.77788 35.019325,-21.55726 53.461862,-17.73891 12.885319,2.66779 14.978829,3.57753 24.649016,10.71136 14.20355,10.47817 25.44051,28.48302 32.06457,51.37672 1.91773,6.62796 3.77832,12.34237 4.13463,12.69868 0.3563,0.35629 3.56708,-0.71948 7.13504,-2.39063 3.56798,-1.67114 8.2566,-2.83566 10.41917,-2.5878 9.74126,1.11646 5.93291,16.17957 -6.31536,24.97908 l -6.55452,4.70894 v 26.34242 c 0,16.29179 -0.6049,28.36137 -1.58542,31.63408 -2.20336,7.35416 -7.92844,11.87389 -15.03243,11.86752 -8.27562,-0.008 -13.73912,-3.96812 -18.1016,-13.1226 -3.4168,-7.16999 -4.0821,-7.79982 -8.640415,-8.17958 -4.336582,-0.36128 -5.404742,0.20185 -8.762751,4.6198 -2.10329,2.76717 -6.292631,7.73237 -9.30964,11.03378 -4.847791,5.30473 -6.25828,6.05921 -12.133041,6.48999 -3.65615,0.26809 -8.151707,-0.14568 -9.990117,-0.91948 z m -39.123058,-92.9368 c 3.275365,-3.27535 3.491466,-9.01983 0.465117,-12.36391 -2.779996,-3.07186 -9.556764,-3.1956 -12.8290283,-0.23423 -5.378058,4.86706 -1.084659,15.29438 6.2973963,15.29438 1.853658,0 4.583592,-1.2133 6.066515,-2.69624 z M 127.0116,177.58307 c 1.83919,-3.30266 1.84382,-4.09742 0.0423,-7.28146 -2.74753,-4.85618 -5.64622,-6.42961 -9.88515,-5.36571 -11.01687,2.76506 -8.40063,17.71819 2.93287,16.76291 3.656,-0.30816 5.35217,-1.31844 6.90992,-4.11574 z"
         id="path846-2"
         inkscape:connector-curvature="0" />
    </g>
    <g
       transform="translate(10.365533,129.38684)"
       id="g1158">
      <path
         style="fill:#e02e92;stroke-width:0.93922377"
         d="m 85.36579,60.628359 c -8.298,-2.46487 -13.58962,-10.35177 -14.45787,-21.54879 -0.43769,-5.64435 -0.29394,-6.2247 2.04487,-8.25555 3.467,-3.01048 8.76033,-4.3104 17.55209,-4.3104 9.30432,0 15.28218,1.36742 18.60991,4.25697 2.43494,2.11431 2.54837,2.59264 2.11506,8.91875 -0.6207,9.06189 -4.19183,15.98545 -9.80638,19.01218 -5.27415,2.84323 -10.75755,3.50121 -16.05768,1.92684 z M 49.9878,34.998799 c -2.03169,-1.90356 -0.34125,-4.70952 4.87335,-8.08928 3.03613,-1.96781 5.54683,-3.97239 5.57933,-4.45461 0.0325,-0.48222 -2.66993,-2.66038 -6.00539,-4.84035 -4.52903,-2.96005 -6.06449,-4.50645 -6.06449,-6.1077 0,-4.0991902 3.45532,-3.7690802 10.98886,1.04985 8.91732,5.70407 12.29876,8.39525 12.29876,9.78818 0,1.49931 -2.99961,3.95851 -11.02889,9.04193 -6.32263,4.00292 -9.18671,4.97505 -10.64153,3.61198 z m 71.49465,-4.39615 c -9.16923,-5.87751 -11.27161,-7.85097 -10.46415,-9.82247 0.73901,-1.80438 17.18363,-12.4490902 19.23214,-12.4490902 0.82454,0 1.97681,0.83619 2.56058,1.8582102 0.8999,1.57542 0.5916,2.26942 -2.02587,4.56031 -1.69802,1.48615 -4.34351,3.39736 -5.87887,4.24712 -1.53536,0.84977 -2.79157,2.04436 -2.79157,2.65464 0,0.61029 2.58916,2.81127 5.75368,4.89107 6.20196,4.07608 7.52132,5.85724 5.78806,7.81398 -1.87343,2.11499 -4.07972,1.4347 -12.174,-3.75377 z"
         id="path1015-9-6"
         inkscape:connector-curvature="0" />
      <g
         id="g1113"
         transform="translate(-77.30795,32.246095)">
        <g
           id="g1109">
          <path
             style="fill:#11161c;stroke-width:0.93922377"
             d="m 156.39984,25.184444 c -4.37103,-3.59579 -7.60151,-10.83951 -8.18397,-18.35097 -0.43769,-5.64435 -0.29394,-6.2247 2.04487,-8.25555 3.467,-3.01048 8.76033,-4.3104 17.55209,-4.3104 9.20401,0 15.27757,1.36341 18.48667,4.14995 2.02729,1.76035 2.44874,2.95757 2.44426,6.94344 -0.006,5.07377 -1.4767,11.32976 -3.10427,13.20208 -0.73962,0.85085 -1.70804,0.58338 -4.11456,-1.1364 -3.36332,-2.40356 -8.88039,-2.99562 -12.23585,-1.31308 -2.48674,1.24694 -4.79784,5.59142 -4.79784,9.01917 0,2.34084 -0.37244,2.77252 -2.39203,2.77252 -1.31561,0 -3.88033,-1.22434 -5.69937,-2.72076 z M 127.29575,2.752704 c -2.03169,-1.90356 -0.34125,-4.70952 4.87335,-8.08928 3.03613,-1.96781 5.54683,-3.97239 5.57933,-4.45461 0.0325,-0.48222 -2.66993,-2.66038 -6.00539,-4.84035 -4.52903,-2.96005 -6.06449,-4.50645 -6.06449,-6.1077 0,-4.09919 3.45532,-3.76908 10.98886,1.04985 8.91732,5.70407 12.29876,8.39525 12.29876,9.78818 0,1.49931 -2.99961,3.95851 -11.02889,9.04193 -6.32263,4.00292 -9.18671,4.97505 -10.64153,3.61198 z m 71.49465,-4.39615 c -9.16923,-5.87751 -11.27161,-7.85097 -10.46415,-9.82247 0.73901,-1.80438 17.18363,-12.44909 19.23214,-12.44909 0.82454,0 1.97681,0.83619 2.56058,1.85821 0.8999,1.57542 0.5916,2.26942 -2.02587,4.56031 -1.69802,1.48615 -4.34351,3.39736 -5.87887,4.24712 -1.53536,0.84977 -2.79157,2.04436 -2.79157,2.65464 0,0.61029 2.58916,2.81127 5.75368,4.89107 6.20196,4.07608 7.52132,5.85724 5.78806,7.81398 -1.87343,2.11499 -4.07972,1.4347 -12.174,-3.75377 z"
             id="path897-3-6"
             inkscape:connector-curvature="0" />
        </g>
      </g>
    </g>
  </g>
</svg>
