<?xml version="1.0" encoding="UTF-8" standalone="no"?>
<!-- Created with Inkscape (http://www.inkscape.org/) -->

<svg
   xmlns:dc="http://purl.org/dc/elements/1.1/"
   xmlns:cc="http://creativecommons.org/ns#"
   xmlns:rdf="http://www.w3.org/1999/02/22-rdf-syntax-ns#"
   xmlns:svg="http://www.w3.org/2000/svg"
   xmlns="http://www.w3.org/2000/svg"
   xmlns:sodipodi="http://sodipodi.sourceforge.net/DTD/sodipodi-0.dtd"
   xmlns:inkscape="http://www.inkscape.org/namespaces/inkscape"
   width="210mm"
   height="210mm"
   viewBox="0 0 210 210"
   version="1.1"
   id="svg8"
   inkscape:version="0.92.4 (5da689c313, 2019-01-14)"
   sodipodi:docname="upsy1_emo8.svg">
  <defs
     id="defs2" />
  <sodipodi:namedview
     id="base"
     pagecolor="#ffffff"
     bordercolor="#666666"
     borderopacity="1.0"
     inkscape:pageopacity="0.0"
     inkscape:pageshadow="2"
     inkscape:zoom="1.28"
     inkscape:cx="346.35838"
     inkscape:cy="351.65067"
     inkscape:document-units="mm"
     inkscape:current-layer="layer1"
     showgrid="false"
     inkscape:window-width="1920"
     inkscape:window-height="1137"
     inkscape:window-x="1912"
     inkscape:window-y="32"
     inkscape:window-maximized="1" />
  <metadata
     id="metadata5">
    <rdf:RDF>
      <cc:Work
         rdf:about="">
        <dc:format>image/svg+xml</dc:format>
        <dc:type
           rdf:resource="http://purl.org/dc/dcmitype/StillImage" />
        <dc:title></dc:title>
      </cc:Work>
    </rdf:RDF>
  </metadata>
  <g
     inkscape:label="Layer 1"
     inkscape:groupmode="layer"
     id="layer1"
     transform="translate(0,-87)">
    <g
       id="g1211"
       transform="translate(-14.363095,138.33929)" />
    <g
       id="g1097"
       transform="translate(4.8108515,155.55086)" />
    <path
       style="fill:#fad5e6;fill-opacity:1;stroke-width:0.26458332"
       id="path1355"
       sodipodi:type="arc"
       sodipodi:cx="48.369141"
       sodipodi:cy="183.72527"
       sodipodi:rx="12.402344"
       sodipodi:ry="12.815755"
       sodipodi:start="0.37851495"
       sodipodi:end="0.26735652"
       d="m 59.893578,188.46121 a 12.402344,12.815755 0 0 1 -15.785623,7.29964 12.402344,12.815755 0 0 1 -7.500054,-16.10269 12.402344,12.815755 0 0 1 15.368829,-8.19449 12.402344,12.815755 0 0 1 8.354132,15.6473"
       sodipodi:open="true" />
    <path
       style="fill:#fad5e6;fill-opacity:1;stroke-width:0.26458332"
       id="path1355-5"
       sodipodi:type="arc"
       sodipodi:cx="154.61589"
       sodipodi:cy="183.10513"
       sodipodi:rx="12.402344"
       sodipodi:ry="12.815755"
       sodipodi:start="0.37851495"
       sodipodi:end="0.26735652"
       d="m 166.14033,187.84108 a 12.402344,12.815755 0 0 1 -15.78563,7.29963 12.402344,12.815755 0 0 1 -7.50005,-16.10268 12.402344,12.815755 0 0 1 15.36883,-8.19449 12.402344,12.815755 0 0 1 8.35413,15.6473"
       sodipodi:open="true" />
    <g
       id="g844"
       transform="translate(35.151782,7.9374994)"
       style="">
      <path
         style="fill:#6cccf3;stroke-width:1.34811497"
         d="m 58.327806,273.55313 c -4.811429,-2.02519 -7.75519,-4.97154 -13.723018,-13.73504 -4.683681,-6.87779 -5.79469,-7.75166 -9.85515,-7.75166 -4.864965,0 -6.679086,1.88341 -12.111675,12.57423 -3.133921,6.16726 -8.049501,8.99561 -15.6341133,8.99561 -4.534879,0 -6.43931005,-0.8451 -10.057023,-4.4628 -6.835146,-6.83515 -7.8352317,-12.74413 -6.946789,-41.04486 l 0.77264,-24.61188 -3.6464877,-2.25893 c -9.515461,-5.89469 -15.105466,-13.40882 -15.105466,-20.30489 0,-7.56726 5.75987,-9.09764 15.85239,-4.21194 3.2826937,1.58912 6.3850487,2.33965 6.9657547,1.68514 0.575861,-0.64904 2.081743,-5.1233 3.346404,-9.94281 3.968788,-15.1247 15.8705673,-37.50529 24.7035393,-46.45354 14.587492,-14.77788 35.019325,-21.55726 53.461862,-17.73891 12.885319,2.66779 14.978829,3.57753 24.649016,10.71136 14.20355,10.47817 25.44051,28.48302 32.06457,51.37672 1.91773,6.62796 3.77832,12.34237 4.13463,12.69868 0.3563,0.35629 3.56708,-0.71948 7.13504,-2.39063 3.56798,-1.67114 8.2566,-2.83566 10.41917,-2.5878 9.74126,1.11646 5.93291,16.17957 -6.31536,24.97908 l -6.55452,4.70894 v 26.34242 c 0,16.29179 -0.6049,28.36137 -1.58542,31.63408 -2.20336,7.35416 -7.92844,11.87389 -15.03243,11.86752 -8.27562,-0.008 -13.73912,-3.96812 -18.1016,-13.1226 -3.4168,-7.16999 -4.0821,-7.79982 -8.640415,-8.17958 -4.336582,-0.36128 -5.404742,0.20185 -8.762751,4.6198 -2.10329,2.76717 -6.292631,7.73237 -9.30964,11.03378 -4.847791,5.30473 -6.25828,6.05921 -12.133041,6.48999 -3.65615,0.26809 -8.151707,-0.14568 -9.990117,-0.91948 z m -39.123058,-92.9368 c 3.275365,-3.27535 3.491466,-9.01983 0.465117,-12.36391 -2.779996,-3.07186 -9.556764,-3.1956 -12.8290283,-0.23423 -5.378058,4.86706 -1.084659,15.29438 6.2973963,15.29438 1.853658,0 4.583592,-1.2133 6.066515,-2.69624 z M 127.0116,177.58307 c 1.83919,-3.30266 1.84382,-4.09742 0.0423,-7.28146 -2.74753,-4.85618 -5.64622,-6.42961 -9.88515,-5.36571 -11.01687,2.76506 -8.40063,17.71819 2.93287,16.76291 3.656,-0.30816 5.35217,-1.31844 6.90992,-4.11574 z"
         id="path846-2"
         inkscape:connector-curvature="0" />
    </g>
    <g
       id="g8084" />
    <g
       id="g10938">
      <g
         id="g8067"
         style="">
        <g
           id="g8074"
           transform="matrix(1.1486415,0,0,1.1486415,-176.29798,-30.602453)">
          <path
             style="fill:#ffffff;fill-opacity:1;stroke-width:0.1148947"
             id="path1355-5-8"
             sodipodi:type="arc"
             sodipodi:cx="209.32672"
             sodipodi:cy="152.73936"
             sodipodi:rx="5.6585693"
             sodipodi:ry="5.296834"
             sodipodi:start="0.37851495"
             sodipodi:end="0.26735652"
             d="m 214.58475,154.69676 a 5.6585693,5.296834 0 0 1 -7.20219,3.01699 5.6585693,5.296834 0 0 1 -3.4219,-6.65535 5.6585693,5.296834 0 0 1 7.01202,-3.38683 5.6585693,5.296834 0 0 1 3.81158,6.46713"
             sodipodi:open="true" />
          <path
             style="fill:#ffffff;fill-opacity:1;stroke-width:0.0588037"
             id="path1355-5-8-5"
             sodipodi:type="arc"
             sodipodi:cx="211.6925"
             sodipodi:cy="160.67757"
             sodipodi:rx="2.8938801"
             sodipodi:ry="2.7130125"
             sodipodi:start="0.37851495"
             sodipodi:end="0.26735652"
             d="m 214.38154,161.68014 a 2.8938801,2.7130125 0 0 1 -3.68331,1.54528 2.8938801,2.7130125 0 0 1 -1.75001,-3.40883 2.8938801,2.7130125 0 0 1 3.58606,-1.73472 2.8938801,2.7130125 0 0 1 1.94929,3.31243"
             sodipodi:open="true" />
          <path
             style="fill:#ffffff;fill-opacity:1;stroke-width:0.1148947"
             id="path1355-5-8-7"
             sodipodi:type="arc"
             sodipodi:cx="254.72685"
             sodipodi:cy="152.95958"
             sodipodi:rx="5.6585693"
             sodipodi:ry="5.296834"
             sodipodi:start="0.37851495"
             sodipodi:end="0.26735652"
             d="m 259.98488,154.91698 a 5.6585693,5.296834 0 0 1 -7.20219,3.01698 5.6585693,5.296834 0 0 1 -3.4219,-6.65534 5.6585693,5.296834 0 0 1 7.01203,-3.38684 5.6585693,5.296834 0 0 1 3.81157,6.46713"
             sodipodi:open="true" />
          <path
             style="fill:#ffffff;fill-opacity:1;stroke-width:0.0588037"
             id="path1355-5-8-5-5"
             sodipodi:type="arc"
             sodipodi:cx="257.09268"
             sodipodi:cy="160.89778"
             sodipodi:rx="2.8938801"
             sodipodi:ry="2.7130125"
             sodipodi:start="0.37851495"
             sodipodi:end="0.26735652"
             d="m 259.78172,161.90035 a 2.8938801,2.7130125 0 0 1 -3.68331,1.54529 2.8938801,2.7130125 0 0 1 -1.75002,-3.40884 2.8938801,2.7130125 0 0 1 3.58606,-1.73472 2.8938801,2.7130125 0 0 1 1.9493,3.31243"
             sodipodi:open="true" />
          <path
             style="fill:#ff004a;fill-opacity:1;stroke-width:0.08635674"
             d="m 218.66338,173.15604 c -6.91963,-4.94829 -11.28242,-9.20106 -14.17246,-13.81508 -1.74557,-2.78685 -2.62055,-5.15217 -2.72543,-7.36762 -0.22511,-4.75541 2.49698,-8.51738 7.04685,-9.73887 0.7406,-0.19882 0.99327,-0.22265 2.42436,-0.22864 1.57629,-0.007 1.60759,-0.003 2.34597,0.26118 1.5337,0.54897 2.90386,1.7058 4.60957,3.89184 0.51257,0.65692 0.97834,1.24594 1.03504,1.30892 0.0829,0.092 0.28708,-0.11988 1.0403,-1.07946 2.04934,-2.61078 3.55272,-3.7323 5.7793,-4.31134 1.40191,-0.36458 3.0517,-0.26361 4.70241,0.28779 3.43721,1.14815 5.67841,4.09014 6.14036,8.06036 0.41566,3.5723 -1.14661,7.88663 -4.32875,11.95422 -2.35566,3.01112 -6.32553,6.61731 -10.81498,9.82419 -0.81852,0.58468 -2.20289,1.36167 -2.4168,1.35646 -0.0574,-0.001 -0.35701,-0.18318 -0.66574,-0.40395 z m -6.84913,-11.54153 c 0.2373,-0.25893 0.28602,-0.37992 0.28602,-0.71023 0,-0.72307 -0.43576,-1.15882 -1.15882,-1.15882 -1.10006,0 -1.48778,1.4873 -0.54253,2.08118 0.21,0.13195 0.37897,0.16484 0.70289,0.13684 0.35593,-0.0308 0.47371,-0.0885 0.71244,-0.34897 z m -1.57065,-3.69723 c 0.23748,-0.0492 0.70777,-0.22329 1.04509,-0.38681 1.87272,-0.90782 2.99111,-2.99632 2.70877,-5.05838 -0.20038,-1.46353 -0.88982,-2.59437 -2.09974,-3.44407 -0.84462,-0.59316 -1.70364,-0.8547 -2.8028,-0.85335 -1.47912,0.002 -2.52527,0.42387 -3.51233,1.41698 -1.01549,1.02173 -1.46053,2.08954 -1.46053,3.50433 0,1.39085 0.4436,2.47593 1.4151,3.46139 1.26786,1.28608 2.85306,1.74412 4.70644,1.35991 z m 53.10366,14.70921 c -7.59164,-5.45386 -12.53488,-10.77668 -14.95163,-16.09976 -0.97629,-2.15036 -1.2901,-3.57951 -1.20642,-5.49426 0.0581,-1.32995 0.19007,-2.01091 0.60237,-3.10857 1.39473,-3.71319 4.79345,-5.96794 8.99581,-5.96794 1.23398,0 2.03844,0.17239 2.95034,0.63223 1.29983,0.65545 2.24771,1.52764 3.81773,3.5129 0.54465,0.68869 1.03788,1.30444 1.09607,1.36834 0.0862,0.0946 0.26623,-0.0898 0.9699,-0.9931 1.14537,-1.47038 1.7043,-2.07319 2.54865,-2.74875 1.30907,-1.04739 2.63699,-1.61079 4.3789,-1.85783 0.9951,-0.14114 2.72246,0.14688 4.12512,0.6878 1.47635,0.56934 3.10776,1.87246 3.99054,3.18752 3.38648,5.04478 1.71613,12.0053 -4.49954,18.75001 -2.0547,2.22959 -5.65097,5.31558 -8.88164,7.62143 -0.9346,0.66705 -2.29991,1.44683 -2.53069,1.44536 -0.0574,-2.7e-4 -0.68991,-0.42129 -1.40551,-0.93538 z m -6.10935,-11.01198 c 0.2373,-0.25893 0.28602,-0.37992 0.28602,-0.71023 0,-0.72644 -0.43571,-1.15882 -1.16772,-1.15882 -0.35982,0 -0.44715,0.0401 -0.75295,0.34591 -0.33506,0.33507 -0.34468,0.36084 -0.30652,0.82106 0.0627,0.75625 0.4682,1.10125 1.22873,1.04546 0.35977,-0.0264 0.47113,-0.0801 0.71244,-0.34338 z m -1.44177,-3.72446 c 1.65644,-0.44079 3.05677,-1.86145 3.49565,-3.54641 0.16792,-0.64471 0.16956,-1.84431 0.003,-2.48229 -0.41935,-1.60999 -1.60359,-2.89054 -3.18093,-3.43961 -0.59355,-0.20662 -0.84365,-0.24581 -1.56963,-0.24591 -1.41906,-1.8e-4 -2.44248,0.38347 -3.41844,1.28163 -0.61838,0.56907 -1.03007,1.1956 -1.35581,2.06325 -0.18657,0.49698 -0.21891,0.72748 -0.22103,1.57527 -0.002,0.85998 0.0272,1.07114 0.21855,1.57528 0.61389,1.61689 1.85959,2.80664 3.36155,3.21057 0.61219,0.16464 2.0621,0.16911 2.66671,0.008 z"
             id="path7977-9"
             inkscape:connector-curvature="0" />
        </g>
      </g>
      <g
         transform="translate(130.08509,-61.973124)"
         id="g1041">
        <path
           inkscape:connector-curvature="0"
           d="m -9.4456744,234.33384 c -0.31625,0.0138 -0.7191196,0.10547 -1.2309296,0.25218 -15.30246,4.38638 -22.02406,4.59167 -32.57734,0.99581 -6.29704,-2.14562 -7.30555,-1.18301 -5.39864,5.15317 3.06356,10.17943 8.96798,17.36193 16.08584,19.56728 1.55594,0.48209 3.76918,0.67765 4.91805,0.4346 1.14887,-0.24305 4.91575,-0.76703 6.90552,-2.52336 5.42468,-3.25655 12.4137796,-14.307 12.4157796,-21.30722 5.3e-4,-1.95624 -0.16952,-2.6137 -1.11828,-2.57246 z m -18.8277896,13.3997 c 2.32999,0 5.76779,3.66012 4.84312,5.15628 -0.7816,1.26467 -9.9627,1.53945 -9.9627,0.29817 0,-1.84813 3.38497,-5.45445 5.11958,-5.45445 z"
           style="fill:#151d22;stroke-width:1.04442763"
           id="path876-0" />
        <g
           id="g1020-4-6"
           transform="matrix(1.1328457,0,0,1.1328457,502.8397,131.39104)">
          <path
             style="fill:#e62a91;stroke-width:1.1237663"
             d="m -475.73272,111.81989 c -2.00873,-1.22475 -3.65224,-2.94784 -3.65224,-3.82908 0,-2.57395 6.6059,-7.42091 10.1139,-7.42091 3.50799,0 10.11389,4.84696 10.11389,7.42091 0,2.12238 -6.56932,6.0559 -10.11389,6.0559 -1.54518,0 -4.45293,-1.00207 -6.46166,-2.22682 z"
             id="path1032-3-8"
             inkscape:connector-curvature="0" />
        </g>
      </g>
    </g>
  </g>
</svg>
