<?xml version="1.0" encoding="UTF-8" standalone="no"?>
<!-- Created with Inkscape (http://www.inkscape.org/) -->

<svg
   xmlns:dc="http://purl.org/dc/elements/1.1/"
   xmlns:cc="http://creativecommons.org/ns#"
   xmlns:rdf="http://www.w3.org/1999/02/22-rdf-syntax-ns#"
   xmlns:svg="http://www.w3.org/2000/svg"
   xmlns="http://www.w3.org/2000/svg"
   xmlns:sodipodi="http://sodipodi.sourceforge.net/DTD/sodipodi-0.dtd"
   xmlns:inkscape="http://www.inkscape.org/namespaces/inkscape"
   width="210mm"
   height="210mm"
   viewBox="0 0 210 210"
   version="1.1"
   id="svg8"
   inkscape:version="0.92.4 (5da689c313, 2019-01-14)"
   sodipodi:docname="upsy_cheering.svg">
  <defs
     id="defs2" />
  <sodipodi:namedview
     id="base"
     pagecolor="#ffffff"
     bordercolor="#666666"
     borderopacity="1.0"
     inkscape:pageopacity="0.0"
     inkscape:pageshadow="2"
     inkscape:zoom="0.90509668"
     inkscape:cx="129.42163"
     inkscape:cy="393.28132"
     inkscape:document-units="mm"
     inkscape:current-layer="layer1"
     showgrid="false"
     inkscape:window-width="1920"
     inkscape:window-height="1137"
     inkscape:window-x="1912"
     inkscape:window-y="32"
     inkscape:window-maximized="1" />
  <metadata
     id="metadata5">
    <rdf:RDF>
      <cc:Work
         rdf:about="">
        <dc:format>image/svg+xml</dc:format>
        <dc:type
           rdf:resource="http://purl.org/dc/dcmitype/StillImage" />
        <dc:title></dc:title>
      </cc:Work>
    </rdf:RDF>
  </metadata>
  <g
     inkscape:label="Layer 1"
     inkscape:groupmode="layer"
     id="layer1"
     transform="translate(0,-87)">
    <g
       id="g1211"
       transform="translate(-14.363095,138.33929)" />
    <g
       id="g1097"
       transform="translate(4.8108515,155.55086)" />
    <path
       style="fill:#fad5e6;fill-opacity:1;stroke-width:0.26458332"
       id="path1355"
       sodipodi:type="arc"
       sodipodi:cx="48.369141"
       sodipodi:cy="183.72527"
       sodipodi:rx="12.402344"
       sodipodi:ry="12.815755"
       sodipodi:start="0.37851495"
       sodipodi:end="0.26735652"
       d="m 59.893578,188.46121 a 12.402344,12.815755 0 0 1 -15.785623,7.29964 12.402344,12.815755 0 0 1 -7.500054,-16.10269 12.402344,12.815755 0 0 1 15.368829,-8.19449 12.402344,12.815755 0 0 1 8.354132,15.6473"
       sodipodi:open="true" />
    <path
       style="fill:#fad5e6;fill-opacity:1;stroke-width:0.26458332"
       id="path1355-5"
       sodipodi:type="arc"
       sodipodi:cx="154.61589"
       sodipodi:cy="183.10513"
       sodipodi:rx="12.402344"
       sodipodi:ry="12.815755"
       sodipodi:start="0.37851495"
       sodipodi:end="0.26735652"
       d="m 166.14033,187.84108 a 12.402344,12.815755 0 0 1 -15.78563,7.29963 12.402344,12.815755 0 0 1 -7.50005,-16.10268 12.402344,12.815755 0 0 1 15.36883,-8.19449 12.402344,12.815755 0 0 1 8.35413,15.6473"
       sodipodi:open="true" />
    <g
       style=""
       id="g844"
       transform="translate(35.151782,7.9374994)">
      <path
         style="fill:#6cccf3;stroke-width:1.34811497"
         d="m 58.327806,273.55313 c -4.811429,-2.02519 -7.75519,-4.97154 -13.723018,-13.73504 -4.683681,-6.87779 -5.79469,-7.75166 -9.85515,-7.75166 -4.864965,0 -6.679086,1.88341 -12.111675,12.57423 -3.133921,6.16726 -8.049501,8.99561 -15.6341133,8.99561 -4.534879,0 -6.43931005,-0.8451 -10.057023,-4.4628 -6.835146,-6.83515 -7.8352317,-12.74413 -6.946789,-41.04486 l 0.77264,-24.61188 -3.6464877,-2.25893 c -9.515461,-5.89469 -15.105466,-13.40882 -15.105466,-20.30489 0,-7.56726 5.75987,-9.09764 15.85239,-4.21194 3.2826937,1.58912 6.3850487,2.33965 6.9657547,1.68514 0.575861,-0.64904 2.081743,-5.1233 3.346404,-9.94281 3.968788,-15.1247 15.8705673,-37.50529 24.7035393,-46.45354 14.587492,-14.77788 35.019325,-21.55726 53.461862,-17.73891 12.885319,2.66779 14.978829,3.57753 24.649016,10.71136 14.20355,10.47817 25.44051,28.48302 32.06457,51.37672 1.91773,6.62796 3.77832,12.34237 4.13463,12.69868 0.3563,0.35629 3.56708,-0.71948 7.13504,-2.39063 3.56798,-1.67114 8.2566,-2.83566 10.41917,-2.5878 9.74126,1.11646 5.93291,16.17957 -6.31536,24.97908 l -6.55452,4.70894 v 26.34242 c 0,16.29179 -0.6049,28.36137 -1.58542,31.63408 -2.20336,7.35416 -7.92844,11.87389 -15.03243,11.86752 -8.27562,-0.008 -13.73912,-3.96812 -18.1016,-13.1226 -3.4168,-7.16999 -4.0821,-7.79982 -8.640415,-8.17958 -4.336582,-0.36128 -5.404742,0.20185 -8.762751,4.6198 -2.10329,2.76717 -6.292631,7.73237 -9.30964,11.03378 -4.847791,5.30473 -6.25828,6.05921 -12.133041,6.48999 -3.65615,0.26809 -8.151707,-0.14568 -9.990117,-0.91948 z m -39.123058,-92.9368 c 3.275365,-3.27535 3.491466,-9.01983 0.465117,-12.36391 -2.779996,-3.07186 -9.556764,-3.1956 -12.8290283,-0.23423 -5.378058,4.86706 -1.084659,15.29438 6.2973963,15.29438 1.853658,0 4.583592,-1.2133 6.066515,-2.69624 z M 127.0116,177.58307 c 1.83919,-3.30266 1.84382,-4.09742 0.0423,-7.28146 -2.74753,-4.85618 -5.64622,-6.42961 -9.88515,-5.36571 -11.01687,2.76506 -8.40063,17.71819 2.93287,16.76291 3.656,-0.30816 5.35217,-1.31844 6.90992,-4.11574 z"
         id="path846-2"
         inkscape:connector-curvature="0" />
    </g>
    <g
       style=""
       id="g1020"
       transform="translate(434.62932,39.236808)">
      <path
         style="fill:#e62a91;stroke-width:1.53722072"
         d="m -340.70212,165.0917 c -2.74778,-1.67536 -4.99597,-4.0324 -4.99597,-5.23787 0,-3.52094 9.03633,-10.15119 13.83499,-10.15119 4.79865,0 13.83498,6.63025 13.83498,10.15119 0,2.90324 -8.98629,8.28398 -13.83498,8.28398 -2.11368,0 -6.09124,-1.37075 -8.83902,-3.04611 z"
         id="path1032"
         inkscape:connector-curvature="0" />
      <path
         style="fill:#050a0c;stroke-width:1.34811497"
         d="m -346.48013,158.80655 c -1.54952,-2.94036 -5.84417,-23.48791 -5.07085,-24.26123 0.30879,-0.30879 2.89327,0.0861 5.74328,0.87743 2.85002,0.79138 9.12509,1.43887 13.9446,1.43887 4.81951,0 11.09458,-0.64749 13.94459,-1.43887 2.85002,-0.79138 5.43595,-1.18476 5.74653,-0.87419 0.87085,0.87086 -3.17298,20.74223 -4.86408,23.90208 -1.49507,2.79357 -1.51243,2.79163 -5.5706,-0.62309 -5.40094,-4.5446 -12.23718,-4.55667 -18.16921,-0.0321 -4.1247,3.14606 -4.54034,3.21974 -5.70426,1.01109 z m -36.0721,-30.55783 c -5.10761,-5.10761 -5.49904,-6.45955 -2.57326,-8.88774 1.66006,-1.37772 2.69388,-0.93669 5.93334,2.53117 5.22327,5.59153 10.58055,5.60764 16.90938,0.0508 2.59883,-2.28181 5.34987,-3.76263 6.11343,-3.29073 3.44327,2.12806 -0.25338,9.59478 -6.27475,12.67414 -1.61955,0.82824 -5.77512,1.5059 -9.23459,1.5059 -5.3558,0 -6.9707,-0.68074 -10.87355,-4.58359 z m 81.02172,2.4857 c -4.42978,-2.27964 -8.68568,-7.02662 -8.73278,-9.74043 -0.059,-3.40013 4.1629,-3.35293 7.80217,0.0872 1.99476,1.88562 4.84014,3.60414 6.32307,3.81893 4.46344,0.64648 9.94313,-1.36849 11.46749,-4.2168 2.05933,-3.84788 6.73206,-3.53208 6.73206,0.45498 0,5.34527 -9.03829,11.70699 -16.60217,11.68566 -1.62002,-0.005 -4.76546,-0.94488 -6.98984,-2.08958 z"
         id="path1022"
         inkscape:connector-curvature="0" />
    </g>
  </g>
</svg>
