<?xml version="1.0" encoding="UTF-8" standalone="no"?>
<!-- Created with Inkscape (http://www.inkscape.org/) -->

<svg
   xmlns:dc="http://purl.org/dc/elements/1.1/"
   xmlns:cc="http://creativecommons.org/ns#"
   xmlns:rdf="http://www.w3.org/1999/02/22-rdf-syntax-ns#"
   xmlns:svg="http://www.w3.org/2000/svg"
   xmlns="http://www.w3.org/2000/svg"
   xmlns:sodipodi="http://sodipodi.sourceforge.net/DTD/sodipodi-0.dtd"
   xmlns:inkscape="http://www.inkscape.org/namespaces/inkscape"
   width="210mm"
   height="210mm"
   viewBox="0 0 210 210"
   version="1.1"
   id="svg8"
   inkscape:version="0.92.4 (5da689c313, 2019-01-14)"
   sodipodi:docname="upsy1_emo9.svg">
  <defs
     id="defs2" />
  <sodipodi:namedview
     id="base"
     pagecolor="#ffffff"
     bordercolor="#666666"
     borderopacity="1.0"
     inkscape:pageopacity="0.0"
     inkscape:pageshadow="2"
     inkscape:zoom="0.90509668"
     inkscape:cx="106.94307"
     inkscape:cy="393.28132"
     inkscape:document-units="mm"
     inkscape:current-layer="g1158"
     showgrid="false"
     inkscape:window-width="1920"
     inkscape:window-height="1137"
     inkscape:window-x="1912"
     inkscape:window-y="32"
     inkscape:window-maximized="1" />
  <metadata
     id="metadata5">
    <rdf:RDF>
      <cc:Work
         rdf:about="">
        <dc:format>image/svg+xml</dc:format>
        <dc:type
           rdf:resource="http://purl.org/dc/dcmitype/StillImage" />
        <dc:title></dc:title>
      </cc:Work>
    </rdf:RDF>
  </metadata>
  <g
     inkscape:label="Layer 1"
     inkscape:groupmode="layer"
     id="layer1"
     transform="translate(0,-87)">
    <g
       id="g1211"
       transform="translate(-14.363095,138.33929)" />
    <g
       id="g1097"
       transform="translate(4.8108515,155.55086)" />
    <path
       style="fill:#fad5e6;fill-opacity:1;stroke-width:0.26458332"
       id="path1355"
       sodipodi:type="arc"
       sodipodi:cx="48.369141"
       sodipodi:cy="183.72527"
       sodipodi:rx="12.402344"
       sodipodi:ry="12.815755"
       sodipodi:start="0.37851495"
       sodipodi:end="0.26735652"
       d="m 59.893578,188.46121 a 12.402344,12.815755 0 0 1 -15.785623,7.29964 12.402344,12.815755 0 0 1 -7.500054,-16.10269 12.402344,12.815755 0 0 1 15.368829,-8.19449 12.402344,12.815755 0 0 1 8.354132,15.6473"
       sodipodi:open="true" />
    <path
       style="fill:#fad5e6;fill-opacity:1;stroke-width:0.26458332"
       id="path1355-5"
       sodipodi:type="arc"
       sodipodi:cx="154.61589"
       sodipodi:cy="183.10513"
       sodipodi:rx="12.402344"
       sodipodi:ry="12.815755"
       sodipodi:start="0.37851495"
       sodipodi:end="0.26735652"
       d="m 166.14033,187.84108 a 12.402344,12.815755 0 0 1 -15.78563,7.29963 12.402344,12.815755 0 0 1 -7.50005,-16.10268 12.402344,12.815755 0 0 1 15.36883,-8.19449 12.402344,12.815755 0 0 1 8.35413,15.6473"
       sodipodi:open="true" />
    <g
       style=""
       id="g844"
       transform="translate(35.151782,7.9374994)">
      <path
         style="fill:#6cccf3;stroke-width:1.34811497"
         d="m 58.327806,273.55313 c -4.811429,-2.02519 -7.75519,-4.97154 -13.723018,-13.73504 -4.683681,-6.87779 -5.79469,-7.75166 -9.85515,-7.75166 -4.864965,0 -6.679086,1.88341 -12.111675,12.57423 -3.133921,6.16726 -8.049501,8.99561 -15.6341133,8.99561 -4.534879,0 -6.43931005,-0.8451 -10.057023,-4.4628 -6.835146,-6.83515 -7.8352317,-12.74413 -6.946789,-41.04486 l 0.77264,-24.61188 -3.6464877,-2.25893 c -9.515461,-5.89469 -15.105466,-13.40882 -15.105466,-20.30489 0,-7.56726 5.75987,-9.09764 15.85239,-4.21194 3.2826937,1.58912 6.3850487,2.33965 6.9657547,1.68514 0.575861,-0.64904 2.081743,-5.1233 3.346404,-9.94281 3.968788,-15.1247 15.8705673,-37.50529 24.7035393,-46.45354 14.587492,-14.77788 35.019325,-21.55726 53.461862,-17.73891 12.885319,2.66779 14.978829,3.57753 24.649016,10.71136 14.20355,10.47817 25.44051,28.48302 32.06457,51.37672 1.91773,6.62796 3.77832,12.34237 4.13463,12.69868 0.3563,0.35629 3.56708,-0.71948 7.13504,-2.39063 3.56798,-1.67114 8.2566,-2.83566 10.41917,-2.5878 9.74126,1.11646 5.93291,16.17957 -6.31536,24.97908 l -6.55452,4.70894 v 26.34242 c 0,16.29179 -0.6049,28.36137 -1.58542,31.63408 -2.20336,7.35416 -7.92844,11.87389 -15.03243,11.86752 -8.27562,-0.008 -13.73912,-3.96812 -18.1016,-13.1226 -3.4168,-7.16999 -4.0821,-7.79982 -8.640415,-8.17958 -4.336582,-0.36128 -5.404742,0.20185 -8.762751,4.6198 -2.10329,2.76717 -6.292631,7.73237 -9.30964,11.03378 -4.847791,5.30473 -6.25828,6.05921 -12.133041,6.48999 -3.65615,0.26809 -8.151707,-0.14568 -9.990117,-0.91948 z m -39.123058,-92.9368 c 3.275365,-3.27535 3.491466,-9.01983 0.465117,-12.36391 -2.779996,-3.07186 -9.556764,-3.1956 -12.8290283,-0.23423 -5.378058,4.86706 -1.084659,15.29438 6.2973963,15.29438 1.853658,0 4.583592,-1.2133 6.066515,-2.69624 z M 127.0116,177.58307 c 1.83919,-3.30266 1.84382,-4.09742 0.0423,-7.28146 -2.74753,-4.85618 -5.64622,-6.42961 -9.88515,-5.36571 -11.01687,2.76506 -8.40063,17.71819 2.93287,16.76291 3.656,-0.30816 5.35217,-1.31844 6.90992,-4.11574 z"
         id="path846-2"
         inkscape:connector-curvature="0" />
    </g>
    <g
       transform="translate(10.365533,129.38684)"
       id="g1158">
      <g
         id="g1113"
         transform="translate(-77.30795,32.246095)">
        <g
           id="g1109" />
      </g>
      <g
         id="g20336">
        <path
           inkscape:connector-curvature="0"
           d="m 90.797554,35.575971 c -4.232501,0 -6.780708,0.625772 -8.44978,2.075065 -1.125943,0.977686 -1.19513,1.25696 -0.984419,3.974246 0.41799,5.390433 2.965294,9.187456 6.960091,10.374086 2.551572,0.757927 5.191495,0.441081 7.730561,-0.927697 2.702935,-1.457119 4.422013,-4.790284 4.720833,-9.152831 0.2086,-3.045495 0.15422,-3.275813 -1.018009,-4.293677 -1.602024,-1.391077 -4.480021,-2.049192 -8.959277,-2.049192 z"
           style="fill:#11161c;fill-opacity:1;stroke-width:0.45215809"
           id="path1015-9-6" />
        <path
           d="m 62.423649,16.772923 c 0.820778,0.395733 -0.128497,1.301633 -0.657735,1.364187 -1.4342,0.169518 -2.243803,-1.460506 -2.070641,-2.679656 0.309747,-2.180775 2.714346,-3.263733 4.701579,-2.777095 2.916345,0.71416 4.305832,3.982283 3.483548,6.723501 -1.095975,3.653613 -5.254842,5.356895 -8.745423,4.190002 C 54.742437,22.125446 52.722482,17.06435 54.238522,12.826516 56.074649,7.6939316 62.043873,5.3558106 67.027789,7.2236074 72.901163,9.4247412 75.558341,16.305524 73.337152,22.034797 70.772701,28.64947 62.978185,31.626286 56.50404,29.050613 49.147704,26.12397 45.85085,17.414254 48.78177,10.195579 52.06982,2.0973161 61.695771,-1.5198673 69.658727,1.7668559 78.499117,5.4157416 82.436846,15.958687 78.793903,24.665735"
           sodipodi:t0="0"
           sodipodi:argument="-18.400295"
           sodipodi:radius="18.173655"
           sodipodi:revolution="3"
           sodipodi:expansion="1"
           sodipodi:cy="16.772923"
           sodipodi:cx="62.423649"
           id="path20269"
           style="fill:none;fill-rule:evenodd;stroke:#000000;stroke-width:2.36500001;stroke-miterlimit:4;stroke-dasharray:none;stroke-opacity:1"
           sodipodi:type="spiral" />
        <path
           d="m 119.08825,16.23435 c 0.82078,0.395733 -0.1285,1.301634 -0.65774,1.364188 -1.4342,0.169518 -2.2438,-1.460506 -2.07064,-2.679657 0.30975,-2.180774 2.71435,-3.263732 4.70158,-2.777094 2.91635,0.71416 4.30583,3.982282 3.48355,6.723501 -1.09597,3.653613 -5.25484,5.356894 -8.74542,4.190002 -4.39254,-1.468416 -6.4125,-6.529512 -4.89646,-10.767346 1.83613,-5.1325847 7.80535,-7.4707057 12.78927,-5.6029089 5.87337,2.2011338 8.53055,9.0819169 6.30936,14.8111899 -2.56445,6.614673 -10.35897,9.591489 -16.83311,7.015816 -7.35634,-2.926643 -10.65319,-11.636359 -7.72227,-18.8550345 3.28805,-8.0982627 12.914,-11.7154461 20.87696,-8.4287229 8.84039,3.6488857 12.77812,14.1918314 9.13517,22.8988794"
           sodipodi:t0="0"
           sodipodi:argument="-18.400295"
           sodipodi:radius="18.173655"
           sodipodi:revolution="3"
           sodipodi:expansion="1"
           sodipodi:cy="16.23435"
           sodipodi:cx="119.08825"
           id="path20269-7"
           style="fill:none;fill-rule:evenodd;stroke:#000000;stroke-width:2.36500001;stroke-miterlimit:4;stroke-dasharray:none;stroke-opacity:1"
           sodipodi:type="spiral" />
      </g>
    </g>
  </g>
</svg>
